<svg width="302" height="48" viewBox="0 0 302 48" fill="none" xmlns="http://www.w3.org/2000/svg">
<path d="M4.88758e-05 47.36L12.16 0.639984H19.9041L32 47.36H26.1761L23.104 34.944H8.96005L5.88805 47.36H4.88758e-05ZM10.112 30.08H21.8881L18.3041 15.68C17.6214 12.9493 17.0881 10.6667 16.7041 8.83198C16.32 6.99732 16.0854 5.80265 16 5.24798C15.9147 5.80265 15.68 6.99732 15.296 8.83198C14.912 10.6667 14.3787 12.928 13.696 15.616L10.112 30.08ZM40.935 47.36V0.639984H48.615L62.8871 40.64C62.8017 39.5733 62.6951 38.272 62.5671 36.736C62.4817 35.1573 62.3964 33.5147 62.3111 31.808C62.2684 30.0587 62.247 28.416 62.247 26.88V0.639984H67.8151V47.36H60.135L45.927 7.35999C46.0124 8.38398 46.0977 9.68532 46.183 11.264C46.2684 12.8 46.3324 14.4427 46.375 16.192C46.4604 17.8987 46.503 19.5413 46.503 21.12V47.36H40.935ZM92.75 48C89.934 48 87.502 47.4667 85.454 46.4C83.4487 45.3333 81.8914 43.7973 80.782 41.792C79.7154 39.744 79.182 37.3333 79.182 34.56V13.44C79.182 10.624 79.7154 8.21332 80.782 6.20798C81.8914 4.20265 83.4487 2.66665 85.454 1.59998C87.502 0.533318 89.934 -1.52588e-05 92.75 -1.52588e-05C95.5661 -1.52588e-05 97.9767 0.533318 99.982 1.59998C102.03 2.66665 103.587 4.20265 104.654 6.20798C105.763 8.21332 106.318 10.6027 106.318 13.376V34.56C106.318 37.3333 105.763 39.744 104.654 41.792C103.587 43.7973 102.03 45.3333 99.982 46.4C97.9767 47.4667 95.5661 48 92.75 48ZM92.75 42.816C95.2674 42.816 97.1874 42.112 98.51 40.704C99.8754 39.2533 100.558 37.2053 100.558 34.56V13.44C100.558 10.7947 99.8754 8.76799 98.51 7.35999C97.1874 5.90932 95.2674 5.18398 92.75 5.18398C90.2754 5.18398 88.3554 5.90932 86.99 7.35999C85.6247 8.76799 84.942 10.7947 84.942 13.44V34.56C84.942 37.2053 85.6247 39.2533 86.99 40.704C88.3554 42.112 90.2754 42.816 92.75 42.816ZM117.685 47.36V0.639984H125.365L139.637 40.64C139.552 39.5733 139.445 38.272 139.317 36.736C139.232 35.1573 139.146 33.5147 139.061 31.808C139.018 30.0587 138.997 28.416 138.997 26.88V0.639984H144.565V47.36H136.885L122.677 7.35999C122.762 8.38398 122.848 9.68532 122.933 11.264C123.018 12.8 123.082 14.4427 123.125 16.192C123.21 17.8987 123.253 19.5413 123.253 21.12V47.36H117.685ZM166.62 47.36V5.82398H153.82V0.575985H185.18V5.82398H172.38V47.36H166.62ZM191.875 47.36L204.035 0.639984H211.779L223.875 47.36H218.051L214.979 34.944H200.835L197.763 47.36H191.875ZM201.987 30.08H213.763L210.179 15.68C209.496 12.9493 208.963 10.6667 208.579 8.83198C208.195 6.99732 207.96 5.80265 207.875 5.24798C207.79 5.80265 207.555 6.99732 207.171 8.83198C206.787 10.6667 206.254 12.928 205.571 15.616L201.987 30.08ZM234.41 47.36V0.639984H240.17V42.112H261.29V47.36H234.41ZM271.313 47.36V0.639984H277.073V20.672H283.985L294.353 0.639984H300.625L289.041 23.104L301.265 47.36H294.673L283.793 25.728H277.073V47.36H271.313Z" fill="white"/>
</svg>
