<svg width="402" height="64" viewBox="0 0 402 64" fill="none" xmlns="http://www.w3.org/2000/svg">
<path d="M64 32C64 25.671 62.1232 19.4841 58.607 14.2218C55.0908 8.95938 50.0931 4.85786 44.2459 2.43585C38.3986 0.0138507 31.9645 -0.619856 25.7571 0.614871C19.5497 1.8496 13.8479 4.8973 9.37258 9.37258C4.8973 13.8479 1.8496 19.5497 0.614871 25.7571C-0.619856 31.9645 0.0138508 38.3986 2.43586 44.2459C4.85786 50.0931 8.95938 55.0908 14.2218 58.607C19.4841 62.1232 25.671 64 32 64L32 32H64Z" fill="#00D4FF"/>
<path d="M99.2 55L111.36 8.28H119.104L131.2 55H125.376L122.304 42.584H108.16L105.088 55H99.2ZM109.312 37.72H121.088L117.504 23.32C116.821 20.5893 116.288 18.3067 115.904 16.472C115.52 14.6373 115.285 13.4427 115.2 12.888C115.115 13.4427 114.88 14.6373 114.496 16.472C114.112 18.3067 113.579 20.568 112.896 23.256L109.312 37.72ZM140.135 55V8.28H147.815L162.087 48.28C162.002 47.2133 161.895 45.912 161.767 44.376C161.682 42.7973 161.596 41.1547 161.511 39.448C161.468 37.6987 161.447 36.056 161.447 34.52V8.28H167.015V55H159.335L145.127 15C145.212 16.024 145.298 17.3253 145.383 18.904C145.468 20.44 145.532 22.0827 145.575 23.832C145.66 25.5387 145.703 27.1813 145.703 28.76V55H140.135ZM191.95 55.64C189.134 55.64 186.702 55.1067 184.654 54.04C182.649 52.9733 181.091 51.4373 179.982 49.432C178.915 47.384 178.382 44.9733 178.382 42.2V21.08C178.382 18.264 178.915 15.8533 179.982 13.848C181.091 11.8427 182.649 10.3067 184.654 9.24C186.702 8.17333 189.134 7.64 191.95 7.64C194.766 7.64 197.177 8.17333 199.182 9.24C201.23 10.3067 202.787 11.8427 203.854 13.848C204.963 15.8533 205.518 18.2427 205.518 21.016V42.2C205.518 44.9733 204.963 47.384 203.854 49.432C202.787 51.4373 201.23 52.9733 199.182 54.04C197.177 55.1067 194.766 55.64 191.95 55.64ZM191.95 50.456C194.467 50.456 196.387 49.752 197.71 48.344C199.075 46.8933 199.758 44.8453 199.758 42.2V21.08C199.758 18.4347 199.075 16.408 197.71 15C196.387 13.5493 194.467 12.824 191.95 12.824C189.475 12.824 187.555 13.5493 186.19 15C184.825 16.408 184.142 18.4347 184.142 21.08V42.2C184.142 44.8453 184.825 46.8933 186.19 48.344C187.555 49.752 189.475 50.456 191.95 50.456ZM216.885 55V8.28H224.565L238.837 48.28C238.752 47.2133 238.645 45.912 238.517 44.376C238.432 42.7973 238.346 41.1547 238.261 39.448C238.218 37.6987 238.197 36.056 238.197 34.52V8.28H243.765V55H236.085L221.877 15C221.962 16.024 222.048 17.3253 222.133 18.904C222.218 20.44 222.282 22.0827 222.325 23.832C222.41 25.5387 222.453 27.1813 222.453 28.76V55H216.885ZM265.82 55V13.464H253.02V8.216H284.38V13.464H271.58V55H265.82ZM291.075 55L303.235 8.28H310.979L323.075 55H317.251L314.179 42.584H300.035L296.963 55H291.075ZM301.187 37.72H312.963L309.379 23.32C308.696 20.5893 308.163 18.3067 307.779 16.472C307.395 14.6373 307.16 13.4427 307.075 12.888C306.99 13.4427 306.755 14.6373 306.371 16.472C305.987 18.3067 305.454 20.568 304.771 23.256L301.187 37.72ZM333.61 55V8.28H339.37V49.752H360.49V55H333.61ZM370.513 55V8.28H376.273V28.312H383.185L393.553 8.28H399.825L388.241 30.744L400.465 55H393.873L382.993 33.368H376.273V55H370.513Z" fill="white"/>
</svg>
